<svg width="4600" height="3366" xmlns="http://www.w3.org/2000/svg">
  <path fill-rule="evenodd" fill="#016563" d="M3032.667 2965.268H571.731c-62 0-120.8-24.4-165.466-69.067-44.666-44.665-69.067-103.332-69.067-165.466V602.603c0-61.996 24.4-120.8 69.067-165.464 44.665-44.664 103.332-69.066 165.466-69.066h2460.935c61.995 0 120.8 24.402 165.464 69.066 44.663 44.663 69.066 103.325 69.066 165.464v1109.464c0 22.14-18.14 40.4-40.402 40.4-22.14 0-40.4-18.14-40.4-40.4V602.603c0-83.47-70.4-153.87-153.87-153.87H571.73c-83.465 0-153.867 70.4-153.867 153.87v2128.132c0 83.468 70.402 153.867 153.867 153.867h2460.935c83.47 0 153.87-70.4 153.87-153.867v-559.731c0-22.134 18.117-40.402 40.401-40.402 22.118 0 40.378 18.134 40.378 40.402v559.73c0 62-24.38 120.8-69.066 165.467-44.783 44.668-103.588 69.067-165.583 69.067"/>
  <path fill-rule="evenodd" fill="#016563" d="M3226.8 942.993H377.466c-22.133 0-40.4-18.142-40.4-40.408 0-22.135 18.133-40.387 40.4-40.387H3226.8c22.134 0 40.408 18.12 40.408 40.387 0 22.266-18.142 40.408-40.408 40.408M743.2 582.47c-38.8 0-70.666 32.804-70.666 73.056 0 40.413 31.733 73.08 70.665 73.08 41.07 0 73.068-32 73.068-73.08 0-41.057-32-73.056-73.068-73.056zm0 226.938c-83.466 0-151.334-69.08-151.334-153.882 0-84.665 67.868-153.86 151.333-153.86 41.335 0 79.868 15.862 108.934 44.942 28.933 28.92 44.933 67.585 44.933 108.918 0 41.333-15.867 79.884-44.933 108.94-29.066 29.058-67.599 44.942-108.934 44.942m342.935-226.938c-41.068 0-73.068 32-73.068 73.056 0 41.08 32 73.08 73.068 73.08 41.066 0 73.066-32 73.066-73.08 0-41.057-32-73.056-73.066-73.056zm0 226.938c-41.335 0-79.868-15.884-108.934-44.941-28.933-28.942-44.932-67.608-44.932-108.941s15.866-79.86 44.932-108.918c28.933-28.942 67.6-44.942 108.934-44.942 41.333 0 79.865 15.862 108.932 44.942C1224 575.529 1240 614.194 1240 655.527c0 41.333-15.866 79.884-44.934 108.94-29.067 29.058-67.6 44.942-108.932 44.942m1149.732-63.072h695.872V582.46h-695.87v163.877h-.002zm736.261 80.8h-776.65c-22.137 0-40.412-18.137-40.412-40.411v-244.54c0-22.113 18.137-40.388 40.412-40.388h776.65c22.137 0 40.412 18.137 40.412 40.389v244.539c0 22.137-18.137 40.41-40.412 40.41M1388.664 726.203h78.131V585.017h-78.13v141.185zm118.531 80.676h-158.799c-22.133 0-40.4-18.147-40.4-40.407V544.748c0-22.145 18.134-40.407 40.4-40.407h158.8c22.133 0 40.4 18.124 40.4 40.407v221.86c0 22.123-18.267 40.27-40.4 40.27"/>
  <path fill-rule="evenodd" fill="#9c0063" d="M3020.151 2418.062c-10.412 0-20.684-4-28.535-11.866-15.869-15.6-15.869-41.333 0-56.935l1101.87-1104.407c47.577-47.606 47.577-124.806 0-172.523-47.607-47.606-124.807-47.606-172.552 0L2819.065 2176.727c-15.59 15.87-41.314 15.87-56.932 0-15.59-15.865-15.869-41.333 0-56.932l1101.87-1104.396c38.14-38.14 89.086-59.076 143.206-59.076 54.26 0 105.207 20.935 143.208 59.076 78.925 78.925 78.925 207.46 0 286.387l-1101.869 1104.41c-7.74 7.865-18.152 11.866-28.397 11.866"/>
  <path fill-rule="evenodd" fill="#9c0063" d="M3737.728 1255.66l172.515 172.544 183.353-183.325c22.923-22.95 35.59-53.467 35.59-86.285 0-32.79-12.667-63.307-35.59-86.258-22.95-22.922-53.467-35.59-86.285-35.59-32.79 0-63.307 12.668-86.258 35.59l-183.325 183.325zm172.405 269.878c-10.422 0-20.678-4-28.55-11.866l-229.447-229.461c-15.605-15.605-15.605-41.328 0-56.933l211.847-211.874c38.14-38.14 89.084-59.066 143.217-59.066 54.244 0 105.19 20.926 143.19 59.066 38.14 38.14 59.066 89.057 59.066 143.19 0 54.27-20.926 105.216-59.066 143.217l-211.874 211.86c-7.734 7.867-17.99 11.867-28.383 11.867M2805.196 2220.2l-95.867 239.067 239.07-95.867-143.203-143.2zm-168.388 351.734c-10.546 0-20.948-4.001-28.537-11.867-11.332-11.335-14.93-28.533-8.81-43.6l153.873-383.21c5.066-12.655 16.13-21.733 29.198-24.38 13.338-2.812 26.924 1.448 36.54 11.063l229.453 229.46c9.616 9.6 13.607 23.466 11.064 36.533-2.523 13.067-11.85 24.267-24.38 29.2L2652.007 2569c-5.067 1.867-10.133 2.934-15.2 2.934M932.27 1487.654h184.002c31.466 0 58-25.465 58-55.467v-50.397c0-31.071-26.934-57.994-58-57.994H932.27v163.859zm184.134 80.677h-224.4c-22.133 0-40.4-18.145-40.4-40.403v-244.534c0-22.128 18.132-40.403 40.4-40.403h224.4c75.201 0 138.668 63.6 138.668 138.67v50.397c0 36.53-14.934 70.792-41.6 96.792-26.267 25.614-60.8 39.48-97.068 39.48"/>
  <path fill-rule="evenodd" fill="#9c0063" d="M932.266 1732.333h269.867c30.534 0 55.467-24.934 55.467-55.475v-50.394c0-31.473-25.467-58-55.467-58H932.266v163.87-.001zm269.867 80.664H892c-22.134 0-40.4-18.125-40.4-40.4v-244.532c0-22.14 18.134-40.4 40.4-40.4h310.133c36.534 0 70.8 14.94 96.8 41.603 25.467 26.272 39.334 60.794 39.334 97.06v50.41c0 75.194-61.067 136.259-136.134 136.259m516.936-.003h-206.798c-22.134 0-40.4-18.126-40.4-40.402v-489.198c0-22.128 18.133-40.403 40.4-40.403 22.133 0 40.394 18.127 40.394 40.403v448.796h166.404c22.128 0 40.403 18.145 40.403 40.402-.13 22.276-18.275 40.402-40.403 40.402m332.79-489.181c-43.073 0-78.125 35.07-78.125 78.123v254.67c0 41.064 35.863 75.599 78.124 75.599 42.408 0 78.142-34.535 78.142-75.598v-254.67c0-43.054-35.07-78.124-78.142-78.124zm0 489.189c-87.473 0-158.793-70.121-158.793-156.265v-254.672c0-87.453 71.32-158.791 158.792-158.791 87.471 0 158.81 71.338 158.81 158.79v254.673c0 86.144-71.339 156.265-158.81 156.265m494.138 15.062c-110.662 0-204.264-93.584-204.264-204.263v-206.798c0-110.66 93.602-204.264 204.263-204.264 54.402 0 105.857 21.73 144.796 60.8 38.263 38.808 59.468 89.738 59.468 143.464 0 22.143-18.128 40.402-40.403 40.402-22.124 0-40.402-18.127-40.402-40.402 0-67.068-56.522-123.59-123.59-123.59-65.867 0-123.61 57.723-123.61 123.59V1623.8c0 65.867 57.743 123.609 123.61 123.609 67.068 0 123.59-56.54 123.59-123.61 0-22.124 18.146-40.401 40.402-40.401 22.275 0 40.403 18.146 40.403 40.402 0 53.745-21.205 104.674-59.468 143.463-38.808 39.2-90.263 60.8-144.796 60.8"/>
  <path fill-rule="evenodd" fill="#9c0063" d="M2749.996 1627.393l-80.393-7.327v1.07c0-.807.527-17.866-14.128-32.54-13.884-13.602-45.203-29.195-114.68-25.457-22.132 1.203-41.333-15.875-42.667-38.14-1.203-22.131 15.875-41.332 38.14-42.666 81.2-4.528 141.208 12.663 178.257 50.934 39.341 40.938 36.016 88.79 35.471 94.126m-335.065 432.676H947.468c-22.134 0-40.4-18.143-40.4-40.407 0-22.128 18.134-40.407 40.4-40.407h1467.463c22.144 0 40.406 18.144 40.406 40.407 0 22.264-18.262 40.407-40.406 40.407m-547.193 292.524H947.465c-22.132 0-40.398-18.128-40.398-40.391 0-22.141 18.132-40.406 40.398-40.406h920.395c22.141 0 40.406 18.143 40.406 40.406-.136 22.263-18.265 40.392-40.528 40.392m0 294.943H947.465c-22.132 0-40.398-18.142-40.398-40.406 0-22.127 18.132-40.392 40.398-40.392h920.395c22.141 0 40.406 18.13 40.406 40.392 0 22.264-18.265 40.406-40.528 40.406"/>
</svg>